HIERARCHY
ROOT root
{
	OFFSET	0	13.1	24.9
	CHANNELS 6  Xposition Yposition Zposition Xrotation Yrotation Zrotation
	JOINT spine_1
	{
		OFFSET	0	9.99999	0
		CHANNELS 3  Xrotation Yrotation Zrotation
		JOINT spine_2
		{
			OFFSET	0	112	-10
			CHANNELS 3  Xrotation Yrotation Zrotation
			JOINT spine_3
			{
				OFFSET	0	206.5	19.3
				CHANNELS 3  Xrotation Yrotation Zrotation
				JOINT spine_4
				{
					OFFSET	0	110.4	14.6
					CHANNELS 3  Xrotation Yrotation Zrotation
					JOINT neck_1
					{
						OFFSET	0	71.8	-50.3
						CHANNELS 3  Xrotation Yrotation Zrotation
						JOINT neck_2
						{
							OFFSET	0	86.2	-25.8
							CHANNELS 3  Xrotation Yrotation Zrotation
							JOINT head_ee
							{
								OFFSET	0	179.8	-8.7
								CHANNELS 3  Xrotation Yrotation Zrotation
								End Site
								{
									OFFSET	1	0	0
								}
							}
						}
					}
					JOINT left_clavicle
					{
						OFFSET	-43.2	22.4	-70.8
						CHANNELS 3  Xrotation Yrotation Zrotation
						JOINT left_shoulder
						{
							OFFSET	-93.9	-5.79999	48.7
							CHANNELS 3  Xrotation Yrotation Zrotation
							JOINT left_elbow
							{
								OFFSET	-291.4	-30.8	15.2
								CHANNELS 3  Xrotation Yrotation Zrotation
								JOINT left_lowarm_twist
								{
									OFFSET	-110.7	-3.89999	13.6
									CHANNELS 3  Xrotation Yrotation Zrotation
									JOINT left_hand
									{
										OFFSET	-110.7	-3.89999	13.6
										CHANNELS 3  Xrotation Yrotation Zrotation
										JOINT left_ee
										{
											OFFSET	-80.8	-5.10001	12.1
											CHANNELS 3  Xrotation Yrotation Zrotation
											End Site
											{
												OFFSET	1	0	0
											}
										}
									}
								}
							}
						}
					}
					JOINT right_clavicle
					{
						OFFSET	43.2	22.4	-70.8
						CHANNELS 3  Xrotation Yrotation Zrotation
						JOINT right_shoulder
						{
							OFFSET	93.9	-5.79999	48.7
							CHANNELS 3  Xrotation Yrotation Zrotation
							JOINT right_elbow
							{
								OFFSET	291.4	-30.8	15.2
								CHANNELS 3  Xrotation Yrotation Zrotation
								JOINT right_lowarm_twist
								{
									OFFSET	110.7	-3.89999	13.6
									CHANNELS 3  Xrotation Yrotation Zrotation
									JOINT right_hand
									{
										OFFSET	110.7	-3.89999	13.6
										CHANNELS 3  Xrotation Yrotation Zrotation
										JOINT right_ee
										{
											OFFSET	80.8	-5.10001	12.1
											CHANNELS 3  Xrotation Yrotation Zrotation
											End Site
											{
												OFFSET	1	0	0
											}
										}
									}
								}
							}
						}
					}
				}
			}
		}
	}
	JOINT left_hip
	{
		OFFSET	-82.8	-127.5	0.300001
		CHANNELS 3  Xrotation Yrotation Zrotation
		JOINT left_knee
		{
			OFFSET	-28.2	-396.7	2.2
			CHANNELS 3  Xrotation Yrotation Zrotation
			JOINT left_ankle
			{
				OFFSET	-11.7	-411.3	35.4
				CHANNELS 3  Xrotation Yrotation Zrotation
				JOINT left_toes
				{
					OFFSET	0	-60	-88.6
					CHANNELS 3  Xrotation Yrotation Zrotation
					JOINT left_foot_ee
					{
						OFFSET	-22.5	-16.5	-42.2
						CHANNELS 3  Xrotation Yrotation Zrotation
						End Site
						{
							OFFSET	1	0	0
						}
					}
				}
			}
		}
	}
	JOINT right_hip
	{
		OFFSET	82.8	-127.5	0.300001
		CHANNELS 3  Xrotation Yrotation Zrotation
		JOINT right_knee
		{
			OFFSET	28.2	-396.7	2.2
			CHANNELS 3  Xrotation Yrotation Zrotation
			JOINT right_ankle
			{
				OFFSET	11.7	-411.3	35.4
				CHANNELS 3  Xrotation Yrotation Zrotation
				JOINT right_toes
				{
					OFFSET	0	-60	-88.6
					CHANNELS 3  Xrotation Yrotation Zrotation
					JOINT right_foot_ee
					{
						OFFSET	22.5	-16.5	-42.2
						CHANNELS 3  Xrotation Yrotation Zrotation
						End Site
						{
							OFFSET	1	0	0
						}
					}
				}
			}
		}
	}
}
MOTION
Frames: 6
Frame Time: 0.02
1390.68 701.221 -630.078 57.1865 -81.6773 61.9508 -2.08695 -0.74593 -3.40393 -2.08066 -0.52795 -3.44443 -2.04137 0.331627 -3.46881 -2.0581 -0.220027 -3.47766 -4.32189 3.48619 8.47663 -4.12163 -0.0885373 9.26828 -0.0 0.0 -0.0 10.4748 -10.5963 20.8692 24.082 -17.5283 57.6462 3.04629 -56.457 1.63563 -27.509 -1.73096 3.02714 -0.977834 -7.51501 -9.83833 -0.0 0.0 -0.0 2.2068 -2.03008 -4.41204 -23.0961 -1.48416 -70.7106 0.595238 16.429 -0.0859296 3.85991 -0.119916 0.478351 -0.86627 -28.6848 -6.50393 0.0 0.0 0.0 -26.7132 -3.91436 -3.99038 -0.0893595 0.00366919 0.0132222 40.3516 5.52097 -4.88836 -16.4637 0.0 0.0 -0.0 0.0 -0.0 21.053 -5.65608 -4.17035 -0.919634 -0.0367727 -0.136337 -8.14209 9.78649 -1.27622 -40.0512 0.0 0.0 0.0 0.0 0.0 
1418.67 698.969 -628.313 55.4906 -81.1783 60.1305 -1.9791 -0.747463 -3.44714 -1.97264 -0.526735 -3.48765 -1.93306 0.336762 -3.51106 -1.95019 -0.221617 -3.52019 -2.22802 3.08409 6.82731 -2.09976 0.172784 7.57787 -0.0 0.0 -0.0 10.0444 -10.0932 19.9295 21.7072 -17.9891 60.5624 3.02165 -56.2425 1.61512 -27.9103 -1.76651 3.06434 -0.754134 -6.5714 -7.90107 -0.0 0.0 -0.0 2.03779 -2.58873 -4.13749 -22.2224 -1.05028 -71.2612 0.624927 17.2011 -0.0945185 3.8599 -0.119916 0.478349 -0.926685 -28.7365 -6.19773 0.0 0.0 0.0 -28.706 -5.54616 -4.60629 -1.10243 0.0438211 0.163505 37.9052 3.79975 -4.67322 -15.5286 0.0 0.0 -0.0 0.0 -0.0 19.963 -4.85977 -3.76101 -3.98508 -0.143442 -0.594644 -7.14748 8.34825 -1.10949 -39.2434 0.0 0.0 0.0 0.0 0.0 
1443.2 703.141 -620.125 58.2073 -81.0693 63.1864 -1.98135 -0.551377 -3.418 -1.97491 -0.332896 -3.44611 -1.94794 0.51591 -3.42352 -1.9643 -0.0309095 -3.462 -0.25351 2.13246 6.698 -0.121175 -1.665 7.42172 -0.0 0.0 -0.0 9.32964 -9.57584 18.3811 19.6933 -16.3097 62.8146 2.89583 -55.1088 1.51121 -29.0831 -1.87187 3.17161 -0.737053 -6.53531 -7.76911 -0.0 0.0 -0.0 1.88201 -3.00964 -3.87955 -20.1174 -1.54719 -71.5903 0.751805 20.4264 -0.135452 4.12546 -0.126977 0.511538 -0.868903 -28.8305 -6.54851 0.0 0.0 0.0 -29.4814 -6.83866 -5.09867 -3.89984 0.140808 0.581828 37.9402 3.06161 -4.67826 -12.7107 0.0 0.0 -0.0 0.0 -0.0 18.8396 -5.60888 -5.26477 -6.3216 -0.208183 -0.947354 -4.93789 9.44404 -0.767932 -38.1635 0.0 0.0 0.0 0.0 0.0 
1467.69 705.189 -615.743 53.8988 -80.642 59.2365 -1.86874 -0.731004 -3.5888 -1.86172 -0.501312 -3.62797 -1.82217 0.38857 -3.64175 -1.84062 -0.191056 -3.65741 0.228166 2.20943 7.36093 0.390681 -2.12825 8.17505 -0.0 0.0 -0.0 9.03526 -9.55638 17.7455 16.6114 -16.0782 63.4087 2.73087 -53.5181 1.37721 -30.1656 -1.97106 3.26871 -0.400535 -7.03805 -5.69885 -0.0 0.0 -0.0 1.84825 -3.29003 -3.83968 -17.238 -1.29375 -70.9631 0.814952 21.984 -0.158295 4.40501 -0.134243 0.546509 -0.961632 -28.8862 -6.07006 0.0 0.0 0.0 -29.8737 -6.86216 -5.78009 -5.32049 0.182207 0.795916 35.9543 4.76636 -4.49048 -11.2652 0.0 0.0 -0.0 0.0 -0.0 17.3701 -5.8395 -5.97134 -6.69921 -0.217293 -1.00459 -1.64871 7.02317 -0.251332 -38.9312 0.0 0.0 0.0 0.0 0.0 
1486.75 709.071 -610.644 54.3117 -80.3646 59.7542 -2.04916 -0.505086 -3.7616 -2.04133 -0.264878 -3.78607 -2.01556 0.669348 -3.73591 -2.03503 0.0713738 -3.79464 1.44547 1.79055 6.30516 1.568 -2.12097 7.06291 -0.0 0.0 -0.0 9.0983 -9.33361 17.8855 14.3199 -16.1253 64.4918 2.60451 -52.2129 1.27647 -30.8055 -2.03055 3.32522 -0.48482 -6.78621 -6.16254 -0.0 0.0 -0.0 1.97633 -2.66307 -4.02798 -15.7676 -1.81398 -71.3226 0.795928 21.5182 -0.151245 4.58634 -0.138864 0.569211 -0.792416 -28.8814 -6.98278 0.0 0.0 0.0 -30.3954 -8.46965 -6.38765 -6.50157 0.212572 0.974623 35.3798 3.49836 -4.43792 -11.7691 0.0 0.0 -0.0 0.0 -0.0 17.0188 -5.90058 -6.25328 -8.5361 -0.256215 -1.28377 -2.30459 9.32415 -0.356115 -39.4608 0.0 0.0 0.0 0.0 0.0 
1506.05 715.344 -610.306 58.4136 -80.5114 64.2362 -2.07083 -0.477128 -3.76482 -2.06297 -0.236771 -3.78751 -2.03909 0.698545 -3.73014 -2.05848 0.101115 -3.79355 0.63213 2.27995 7.4335 0.797861 -2.11109 8.28771 -0.0 0.0 -0.0 8.8532 -12.0795 17.2839 12.2303 -14.6099 64.6863 2.2635 -48.2653 1.01417 -30.6377 -2.01488 3.31046 -0.378263 -6.30284 -5.23222 -0.0 0.0 -0.0 1.94196 -3.15516 -4.00363 -10.4511 -1.0809 -69.6475 0.803383 21.7011 -0.15399 4.45929 -0.135634 0.553303 -0.583655 -28.9105 -8.1257 0.0 0.0 0.0 -28.5185 -7.92021 -5.2363 -7.5169 0.235725 1.12871 31.9156 2.6949 -4.09584 -9.61286 0.0 0.0 -0.0 0.0 -0.0 15.4131 -5.62334 -6.97476 -8.64575 -0.258255 -1.30047 -0.197324 10.0006 -0.030451 -38.3008 0.0 0.0 0.0 0.0 0.0 
